<?xml version="1.0" encoding="utf-8"?>
<!-- Generator: Adobe Illustrator 27.3.1, SVG Export Plug-In . SVG Version: 6.00 Build 0)  -->
<svg version="1.1" id="Layer_1" xmlns="http://www.w3.org/2000/svg" xmlns:xlink="http://www.w3.org/1999/xlink" x="0px" y="0px"
	 viewBox="0 0 100 100.2" style="enable-background:new 0 0 100 100.2;" xml:space="preserve">
<style type="text/css">
	
		.st0{clip-path:url(#SVGID_00000035497825589545229970000008639291461741522837_);fill:url(#SVGID_00000108987312907203159810000015898350335670640049_);}
	
		.st1{clip-path:url(#SVGID_00000128475571242823052860000005349000082961267116_);fill:url(#SVGID_00000153691285196364839750000016671619710479039110_);}
	
		.st2{clip-path:url(#SVGID_00000155847274616541957670000004314129261256183955_);fill:url(#SVGID_00000025413379236035706990000014666445201749880211_);}
	
		.st3{clip-path:url(#SVGID_00000133520080538348527400000008922742495675670698_);fill:url(#SVGID_00000002346208370987242620000000929793648466729375_);}
	
		.st4{clip-path:url(#SVGID_00000183232811592026387760000009296897841777052307_);fill:url(#SVGID_00000137840921560652388340000001447518396241605029_);}
</style>
<g>
	<defs>
		<path id="SVGID_1_" d="M42.1,26.9c1.3-0.2,2.1-0.4,3.7-0.6c0.7-0.1,1.4-0.2,2-0.2L50,26c1.1,0,3.2,0.2,4.2,0.3l3.8,0.6v1.4
			c-0.2-0.1-0.6-0.1-0.8-0.2c-0.3-0.1-0.6-0.1-0.9-0.1c-4.7-0.8-8.7-0.8-13.3,0.1c-0.3,0.1-0.6,0.1-0.9,0.2V26.9z M49,21.9
			l-13.9,4.8c0.3,0,6.9,1.5,6.9,1.5v2c1.7-0.5,4.4-0.5,6,0c1.4,0.4,2,0.9,2,0.9c1.3-1.2,4.2-1.5,6.6-1.2c0.3,0,0.4,0.1,0.7,0.1
			c0.3,0.1,0.7,0.1,0.7,0.1v-2c0.9-0.1,5.9-1.4,6.8-1.5l-9.3-3.2c-0.3-0.1-0.6-0.2-0.9-0.3l-4.2-1.4c-0.2-0.1-0.3-0.1-0.4-0.1
			C49.8,21.6,49.6,21.7,49,21.9"/>
	</defs>
	<clipPath id="SVGID_00000032640522843415282490000012622237137811830436_">
		<use xlink:href="#SVGID_1_"  style="overflow:visible;"/>
	</clipPath>
	
		<linearGradient id="SVGID_00000167393027323330153100000009152359309538703530_" gradientUnits="userSpaceOnUse" x1="-7.444088e-06" y1="100.195" x2="1" y2="100.195" gradientTransform="matrix(29.7219 0 0 -29.7219 35.1422 3004.3882)">
		<stop  offset="0" style="stop-color:#00B7A5"/>
		<stop  offset="0.4826" style="stop-color:#00F7DF"/>
		<stop  offset="1" style="stop-color:#00B7A5"/>
	</linearGradient>
	
		<rect x="35.1" y="21.6" style="clip-path:url(#SVGID_00000032640522843415282490000012622237137811830436_);fill:url(#SVGID_00000167393027323330153100000009152359309538703530_);" width="29.7" height="9.5"/>
</g>
<g>
	<defs>
		<path id="SVGID_00000068642120573764774870000006368777905222724507_" d="M13.6,26.2c20.1,1.2,32,17.3,32,36.9
			c0,19.6-11.9,35.7-32,36.9c0.8,0.1,1.6,0.1,2.4,0.1c21.2,0,38.4-16.5,38.4-37c0-20.4-17.2-37-38.4-37
			C15.2,26.1,14.4,26.1,13.6,26.2"/>
	</defs>
	<clipPath id="SVGID_00000068673850401008957080000001847050486600056208_">
		<use xlink:href="#SVGID_00000068642120573764774870000006368777905222724507_"  style="overflow:visible;"/>
	</clipPath>
	
		<linearGradient id="SVGID_00000110461615169801565140000009991322139007928250_" gradientUnits="userSpaceOnUse" x1="1.502580e-05" y1="100.195" x2="1" y2="100.195" gradientTransform="matrix(40.7472 0 0 -40.7472 13.6494 4145.7046)">
		<stop  offset="0" style="stop-color:#00B7A5"/>
		<stop  offset="0.4826" style="stop-color:#00F7DF"/>
		<stop  offset="1" style="stop-color:#00B7A5"/>
	</linearGradient>
	
		<rect x="13.6" y="26.1" style="clip-path:url(#SVGID_00000068673850401008957080000001847050486600056208_);fill:url(#SVGID_00000110461615169801565140000009991322139007928250_);" width="40.7" height="73.9"/>
</g>
<g>
	<defs>
		<path id="SVGID_00000082334656364549085960000004363763325285629852_" d="M45.6,63c0,20.4,17.2,37,38.3,37c0.8,0,1.6,0,2.4-0.1
			c-20.1-1.2-32-17.3-32-36.9c0-19.6,11.9-35.7,32-36.9c-0.8-0.1-1.6-0.1-2.4-0.1C62.8,26.1,45.6,42.6,45.6,63"/>
	</defs>
	<clipPath id="SVGID_00000149362647036793846990000002384140989579372721_">
		<use xlink:href="#SVGID_00000082334656364549085960000004363763325285629852_"  style="overflow:visible;"/>
	</clipPath>
	
		<linearGradient id="SVGID_00000158004680468276925410000005208688403210240154_" gradientUnits="userSpaceOnUse" x1="5.429885e-06" y1="100.195" x2="1" y2="100.195" gradientTransform="matrix(40.7472 0 0 -40.7472 45.6098 4145.7046)">
		<stop  offset="0" style="stop-color:#00B7A5"/>
		<stop  offset="0.4826" style="stop-color:#00F7DF"/>
		<stop  offset="1" style="stop-color:#00B7A5"/>
	</linearGradient>
	
		<rect x="45.6" y="26.1" style="clip-path:url(#SVGID_00000149362647036793846990000002384140989579372721_);fill:url(#SVGID_00000158004680468276925410000005208688403210240154_);" width="40.7" height="73.9"/>
</g>
<g>
	<defs>
		<path id="SVGID_00000141451692079025287200000007778597862056657573_" d="M13.7,99.9c0.1-38.2,33.5-39.3,62.8-39.3
			c-9.5-2.2-17.7-3.1-24.9-3.1C14.3,57.5,6.6,83.6,13.7,99.9"/>
	</defs>
	<clipPath id="SVGID_00000022538145800026751270000013580197040323195071_">
		<use xlink:href="#SVGID_00000141451692079025287200000007778597862056657573_"  style="overflow:visible;"/>
	</clipPath>
	
		<linearGradient id="SVGID_00000124871830465758220090000005223387332246169277_" gradientUnits="userSpaceOnUse" x1="0" y1="100.195" x2="1" y2="100.195" gradientTransform="matrix(65.1693 0 0 -65.1693 11.2906 6608.3584)">
		<stop  offset="0" style="stop-color:#00B7A5"/>
		<stop  offset="0.4826" style="stop-color:#00F7DF"/>
		<stop  offset="1" style="stop-color:#00B7A5"/>
	</linearGradient>
	
		<rect x="6.6" y="57.5" style="clip-path:url(#SVGID_00000022538145800026751270000013580197040323195071_);fill:url(#SVGID_00000124871830465758220090000005223387332246169277_);" width="69.9" height="42.4"/>
</g>
<g>
	<defs>
		<path id="SVGID_00000039834088482045547090000005131430662547093938_" d="M50,0C25.9,0,5.7,16.5,0,38.7C6.5,20.6,26.4,7.4,50,7.4
			c23.6,0,43.5,13.2,50,31.3C94.3,16.5,74.1,0,50,0z"/>
	</defs>
	<clipPath id="SVGID_00000004523598703437676710000014024974542339289237_">
		<use xlink:href="#SVGID_00000039834088482045547090000005131430662547093938_"  style="overflow:visible;"/>
	</clipPath>
	
		<linearGradient id="SVGID_00000132073259365554949730000009352685549745763975_" gradientUnits="userSpaceOnUse" x1="0" y1="100.1927" x2="1" y2="100.1927" gradientTransform="matrix(-140.0688 1.793 1.793 140.0688 -66.733 -14015.3193)">
		<stop  offset="0" style="stop-color:#00B7A5"/>
		<stop  offset="0.4826" style="stop-color:#00F7DF"/>
		<stop  offset="1" style="stop-color:#00B7A5"/>
	</linearGradient>
	
		<polygon style="clip-path:url(#SVGID_00000004523598703437676710000014024974542339289237_);fill:url(#SVGID_00000132073259365554949730000009352685549745763975_);" points="
		100.5,38.7 0,40 -0.5,0 100,-1.3 	"/>
</g>
</svg>
