<?xml version="1.0" encoding="utf-8"?>
<!-- Generator: Adobe Illustrator 27.3.1, SVG Export Plug-In . SVG Version: 6.00 Build 0)  -->
<svg version="1.1" id="Layer_1" xmlns="http://www.w3.org/2000/svg" xmlns:xlink="http://www.w3.org/1999/xlink" x="0px" y="0px"
	 viewBox="0 0 370.1 100.2" style="enable-background:new 0 0 370.1 100.2;" xml:space="preserve">
<style type="text/css">
	.st0{fill:#595959;}
	.st1{clip-path:url(#SVGID_00000176765164273110141350000010768215386376305055_);fill:#595959;}
	.st2{clip-path:url(#SVGID_00000176765164273110141350000010768215386376305055_);fill:#4D4D4D;}
	
		.st3{clip-path:url(#SVGID_00000047769803952438096560000015070921762387112361_);fill:url(#SVGID_00000153671048207056499750000009337283297339761309_);}
	
		.st4{clip-path:url(#SVGID_00000062182046516844846890000001298952251705432468_);fill:url(#SVGID_00000035501889270425781270000018211202402546206615_);}
	
		.st5{clip-path:url(#SVGID_00000075842047777081646490000014926797307857302925_);fill:url(#SVGID_00000075124037752320407760000015754600623706492812_);}
	
		.st6{clip-path:url(#SVGID_00000080921877813474639770000007699439874789602735_);fill:url(#SVGID_00000075858484421687303280000012784377052943355570_);}
	
		.st7{clip-path:url(#SVGID_00000130613313394532578600000013845282369172854152_);fill:url(#SVGID_00000010275842411742631220000011279898994469810313_);}
</style>
<polygon class="st0" points="120.9,90.4 120.9,100 126.5,100 126.5,98.5 122.4,98.5 122.4,95.8 125.9,95.8 125.9,94.3 122.4,94.3 
	122.4,91.8 126.5,91.8 126.5,90.4 "/>
<g>
	<defs>
		<rect id="SVGID_1_" y="0" width="370.1" height="100.2"/>
	</defs>
	<clipPath id="SVGID_00000060017212309982748520000009719407421092939943_">
		<use xlink:href="#SVGID_1_"  style="overflow:visible;"/>
	</clipPath>
	<path style="clip-path:url(#SVGID_00000060017212309982748520000009719407421092939943_);fill:#595959;" d="M136.9,95.2
		c0,3-1.9,4.8-4.8,4.8h-2.7v-9.6h2.7C135,90.3,136.9,92.2,136.9,95.2 M135.4,95.2c0-2-1.3-3.3-3.4-3.3h-1.2v6.6h1.2
		C134.1,98.5,135.4,97.2,135.4,95.2"/>
	<path style="clip-path:url(#SVGID_00000060017212309982748520000009719407421092939943_);fill:#595959;" d="M139.4,96.3v-6h1.5v6
		c0,1.3,0.9,2.3,2.1,2.3s2.1-1,2.1-2.3v-6h1.5v6c0,2.2-1.6,3.8-3.6,3.8C141,100.2,139.4,98.6,139.4,96.3"/>
	<path style="clip-path:url(#SVGID_00000060017212309982748520000009719407421092939943_);fill:#595959;" d="M149.1,95.2
		c0-2.7,2.2-5,4.8-5c1.2,0,2.3,0.6,3.3,1.5l-0.9,1.2c-0.7-0.7-1.5-1.1-2.4-1.1c-1.7,0-3.3,1.5-3.3,3.5c0,1.9,1.7,3.4,3.3,3.4
		c1,0,1.8-0.5,2.4-1.1l0.9,1.2c-0.8,0.8-1.8,1.4-3.2,1.4C151.3,100.2,149.1,97.9,149.1,95.2"/>
	<path style="clip-path:url(#SVGID_00000060017212309982748520000009719407421092939943_);fill:#595959;" d="M165.6,98.5h-4.4
		l-0.6,1.5h-1.6l4.4-9.8h0.1l4.4,9.8h-1.6L165.6,98.5z M165.1,97.2l-1.6-3.8l-1.7,3.8H165.1z"/>
	<polygon style="clip-path:url(#SVGID_00000060017212309982748520000009719407421092939943_);fill:#595959;" points="174.9,91.9 
		172.4,91.9 172.4,100 170.9,100 170.9,91.9 168.4,91.9 168.4,90.4 174.9,90.4 	"/>
	
		<rect x="177.4" y="90.4" style="clip-path:url(#SVGID_00000060017212309982748520000009719407421092939943_);fill:#595959;" width="1.5" height="9.6"/>
	<path style="clip-path:url(#SVGID_00000060017212309982748520000009719407421092939943_);fill:#595959;" d="M181.6,95.2
		c0-2.8,2.2-5,4.9-5c2.7,0,4.9,2.2,4.9,5c0,2.7-2.2,5-4.9,5C183.7,100.2,181.6,97.9,181.6,95.2 M189.8,95.2c0-1.9-1.5-3.5-3.4-3.5
		c-1.9,0-3.4,1.6-3.4,3.5c0,1.9,1.5,3.4,3.4,3.4C188.3,98.6,189.8,97.1,189.8,95.2"/>
	<polygon style="clip-path:url(#SVGID_00000060017212309982748520000009719407421092939943_);fill:#595959;" points="201.5,90.3 
		201.5,100.2 201.4,100.2 195.4,93.7 195.4,100 193.9,100 193.9,90.2 194,90.2 200,96.6 200,90.3 	"/>
	<path style="clip-path:url(#SVGID_00000060017212309982748520000009719407421092939943_);fill:#595959;" d="M210.5,98.5h-4.4
		l-0.6,1.5h-1.6l4.4-9.8h0.1l4.4,9.8h-1.6L210.5,98.5z M209.9,97.2l-1.6-3.8l-1.7,3.8H209.9z"/>
	<polygon style="clip-path:url(#SVGID_00000060017212309982748520000009719407421092939943_);fill:#595959;" points="220.8,98.5 
		220.8,100 215.1,100 215.1,90.4 216.6,90.4 216.6,98.5 	"/>
	<path style="clip-path:url(#SVGID_00000060017212309982748520000009719407421092939943_);fill:#595959;" d="M227.5,98.3l1.2-0.9
		c0.4,0.8,1.2,1.2,2.1,1.2c1.1,0,1.9-0.5,1.9-1.3c0-0.9-1.2-1.4-2.3-1.9c-1.1-0.5-2.3-1.1-2.3-2.6c0-1.6,1.3-2.7,3-2.7
		c1.3,0,2.3,0.7,2.7,1.7l-1.1,0.8c-0.3-0.7-0.9-1-1.6-1c-0.9,0-1.6,0.6-1.6,1.2c0,0.8,0.9,1,2,1.5c1.5,0.7,2.6,1.4,2.6,2.9
		c0,1.7-1.4,2.8-3.4,2.8C229.2,100.2,228.1,99.4,227.5,98.3"/>
	<path style="clip-path:url(#SVGID_00000060017212309982748520000009719407421092939943_);fill:#595959;" d="M236.2,95.2
		c0-2.8,2.2-5,4.9-5c2.7,0,4.9,2.2,4.9,5c0,2.7-2.2,5-4.9,5C238.4,100.2,236.2,97.9,236.2,95.2 M244.5,95.2c0-1.9-1.5-3.5-3.4-3.5
		c-1.9,0-3.4,1.6-3.4,3.5c0,1.9,1.5,3.4,3.4,3.4C243,98.6,244.5,97.1,244.5,95.2"/>
	<polygon style="clip-path:url(#SVGID_00000060017212309982748520000009719407421092939943_);fill:#595959;" points="254.3,98.5 
		254.3,100 248.6,100 248.6,90.4 250.1,90.4 250.1,98.5 	"/>
	<path style="clip-path:url(#SVGID_00000060017212309982748520000009719407421092939943_);fill:#595959;" d="M256.7,96.3v-6h1.5v6
		c0,1.3,0.9,2.3,2.1,2.3c1.1,0,2.1-1,2.1-2.3v-6h1.5v6c0,2.2-1.6,3.8-3.6,3.8C258.2,100.2,256.7,98.6,256.7,96.3"/>
	<polygon style="clip-path:url(#SVGID_00000060017212309982748520000009719407421092939943_);fill:#595959;" points="272.7,91.9 
		270.2,91.9 270.2,100 268.7,100 268.7,91.9 266.2,91.9 266.2,90.4 272.7,90.4 	"/>
	
		<rect x="275.2" y="90.4" style="clip-path:url(#SVGID_00000060017212309982748520000009719407421092939943_);fill:#595959;" width="1.5" height="9.6"/>
	<path style="clip-path:url(#SVGID_00000060017212309982748520000009719407421092939943_);fill:#595959;" d="M279.3,95.2
		c0-2.8,2.2-5,4.9-5c2.7,0,4.9,2.2,4.9,5c0,2.7-2.2,5-4.9,5C281.5,100.2,279.3,97.9,279.3,95.2 M287.5,95.2c0-1.9-1.5-3.5-3.4-3.5
		c-1.9,0-3.4,1.6-3.4,3.5c0,1.9,1.5,3.4,3.4,3.4C286,98.6,287.5,97.1,287.5,95.2"/>
	<polygon style="clip-path:url(#SVGID_00000060017212309982748520000009719407421092939943_);fill:#595959;" points="299.3,90.3 
		299.3,100.2 299.2,100.2 293.2,93.7 293.2,100 291.7,100 291.7,90.2 291.8,90.2 297.8,96.6 297.8,90.3 	"/>
	<path style="clip-path:url(#SVGID_00000060017212309982748520000009719407421092939943_);fill:#595959;" d="M301.8,98.3l1.2-0.9
		c0.4,0.8,1.2,1.2,2.1,1.2c1.1,0,1.9-0.5,1.9-1.3c0-0.9-1.2-1.4-2.3-1.9c-1.1-0.5-2.3-1.1-2.3-2.6c0-1.6,1.3-2.7,3-2.7
		c1.3,0,2.3,0.7,2.7,1.7l-1.1,0.8c-0.3-0.7-0.9-1-1.6-1c-0.9,0-1.6,0.6-1.6,1.2c0,0.8,0.9,1,2,1.5c1.5,0.7,2.6,1.4,2.6,2.9
		c0,1.7-1.4,2.8-3.4,2.8C303.5,100.2,302.4,99.4,301.8,98.3"/>
	<path style="clip-path:url(#SVGID_00000060017212309982748520000009719407421092939943_);fill:#595959;" d="M315.8,90.4h3.1
		c1.8,0,3.3,1.4,3.3,3.2c0,1.7-1.5,3.1-3.3,3.1h-1.7v3.3h-1.5V90.4z M320.8,93.5c0-0.9-0.8-1.7-1.8-1.7h-1.7v3.3l1.7,0
		C320,95.2,320.8,94.4,320.8,93.5"/>
	<polygon style="clip-path:url(#SVGID_00000060017212309982748520000009719407421092939943_);fill:#595959;" points="332.3,90.4 
		327.9,100.2 327.8,100.2 323.5,90.4 325.1,90.4 327.9,96.9 330.7,90.4 	"/>
	<polygon style="clip-path:url(#SVGID_00000060017212309982748520000009719407421092939943_);fill:#595959;" points="340.5,91.9 
		338,91.9 338,100 336.5,100 336.5,91.9 334,91.9 334,90.4 340.5,90.4 	"/>
	<polygon style="clip-path:url(#SVGID_00000060017212309982748520000009719407421092939943_);fill:#595959;" points="353.4,98.5 
		353.4,100 347.8,100 347.8,90.4 349.3,90.4 349.3,98.5 	"/>
	<polygon style="clip-path:url(#SVGID_00000060017212309982748520000009719407421092939943_);fill:#595959;" points="360.1,91.9 
		357.6,91.9 357.6,100 356.1,100 356.1,91.9 353.6,91.9 353.6,90.4 360.1,90.4 	"/>
	<path style="clip-path:url(#SVGID_00000060017212309982748520000009719407421092939943_);fill:#595959;" d="M370.1,95.2
		c0,3-1.9,4.8-4.8,4.8h-2.7v-9.6h2.7C368.2,90.3,370.1,92.2,370.1,95.2 M368.6,95.2c0-2-1.3-3.3-3.4-3.3H364v6.6h1.2
		C367.3,98.5,368.6,97.2,368.6,95.2"/>
	<path style="clip-path:url(#SVGID_00000060017212309982748520000009719407421092939943_);fill:#4D4D4D;" d="M145.3,20
		c6.5,0,11.5,1.9,15,5.7c3.5,3.8,5.2,9.3,5.2,16.6V80h-11.1v-8.4c-2,2.8-4.4,4.9-7,6.3c-2.6,1.4-5.3,2.1-8,2.1
		c-2.8,0-5.4-0.4-7.8-1.3c-2.4-0.9-4.4-2.1-6.3-3.7c-3.5-3.4-5.3-7.6-5.3-12.8c0.3-3.2,1.2-6,2.5-8.6c1.4-2.5,3.1-4.7,5.2-6.4
		c2.1-1.7,4.5-2.9,7.1-3.7c2.7-0.8,5.4-1,8.3-0.7c1.8,0.2,3.4,0.6,4.8,1.2c1.4,0.6,2.5,1.3,3.4,2c0.9,0.7,1.6,1.4,2,2
		c0.5,0.6,0.7,1,0.8,1.1v-6.7c-0.2-1.7-0.5-3.3-1-4.7c-0.5-1.5-1.1-2.7-1.9-3.8c-0.8-1.1-1.8-1.9-2.9-2.5c-1.1-0.6-2.3-0.9-3.7-0.9
		c-2.7,0-5.4,0.6-8.1,1.8c-2.7,1.2-5.4,3-8.2,5.5l-7.3-7.3c3.5-3.6,7.2-6.2,11.2-7.9C136.3,20.8,140.6,20,145.3,20 M131.4,62.2
		c0,2.3,0.7,4,2.1,5.3c1.4,1.3,3.5,2,6.4,2c2,0,3.9-0.3,5.7-0.8s3.3-1.3,4.6-2.2c0.9-0.7,1.7-1.5,2.4-2.3c0.8-0.8,1.3-1.5,1.6-2.1
		v-5.9c-1.8-1.2-3.7-2-5.4-2.5c-1.8-0.5-3.5-0.7-5.2-0.7c-1.7,0-3.3,0.2-4.8,0.7c-1.5,0.4-2.8,1.1-3.9,1.9c-1.1,0.8-2,1.8-2.6,2.9
		C131.7,59.6,131.4,60.8,131.4,62.2"/>
	<path style="clip-path:url(#SVGID_00000060017212309982748520000009719407421092939943_);fill:#4D4D4D;" d="M205,35.2
		c-1.5-1.3-2.9-2.2-4.3-2.8c-1.4-0.6-2.8-0.8-4.1-0.8c-1.3,0-2.5,0.2-3.7,0.6c-1.2,0.4-2.3,1-3.3,1.7c-1,0.7-1.9,1.4-2.7,2.2
		c-0.8,0.8-1.5,1.5-2.2,2.3V80h-11V20h11v4.1c1.8-1.4,3.7-2.5,5.7-3.2c1.9-0.7,4-1,6.2-0.9c1.2,0,2.5,0.1,3.8,0.5
		c1.4,0.3,2.9,0.8,4.5,1.6V35.2z"/>
	<path style="clip-path:url(#SVGID_00000060017212309982748520000009719407421092939943_);fill:#4D4D4D;" d="M254.6,73.1
		c-4.1,2.3-7.9,4-11.4,5.1c-3.5,1.2-6.7,1.7-9.7,1.7c-4.1,0-7.9-0.7-11.2-2.1c-3.3-1.4-6.2-3.4-8.7-6.1c-2.4-2.7-4.2-5.8-5.4-9.3
		c-1.2-3.5-1.8-7.4-1.8-11.7c0-4.4,0.7-8.5,2.2-12.3c1.5-3.8,3.5-7.1,6.1-9.9c2.8-2.8,5.9-5,9.5-6.5c3.6-1.5,7.5-2.3,11.8-2.3
		c5.9-0.1,12.2,2.1,18.9,6.4l-6.5,8.6c-5-3-9.4-4.5-13.1-4.5c-2.7,0-5,0.5-7,1.4c-2,0.9-3.9,2.3-5.5,4.1c-1.7,1.9-3,4.1-3.8,6.5
		c-0.8,2.4-1.2,5.2-1.2,8.2c0,5.9,1.5,10.6,4.5,14c1.5,1.7,3.1,2.9,5,3.7c1.9,0.8,4.1,1.2,6.5,1.2c2.2,0,4.5-0.4,6.9-1.3
		c2.4-0.9,4.9-2.2,7.5-4.1L254.6,73.1z"/>
	<path style="clip-path:url(#SVGID_00000060017212309982748520000009719407421092939943_);fill:#4D4D4D;" d="M268,14.3
		c-0.9,0-1.8-0.2-2.7-0.5c-0.9-0.4-1.6-0.9-2.3-1.5c-0.7-0.6-1.2-1.4-1.6-2.3c-0.4-0.9-0.6-1.8-0.6-2.9c0-1,0.2-2,0.6-2.9
		c0.4-0.9,0.9-1.6,1.6-2.2c0.7-0.6,1.4-1.1,2.3-1.4c0.9-0.3,1.7-0.5,2.6-0.5c1,0,1.9,0.2,2.7,0.5c0.9,0.3,1.6,0.8,2.3,1.4
		c0.7,0.6,1.2,1.4,1.6,2.2c0.4,0.9,0.6,1.8,0.6,2.9c0,1-0.2,1.9-0.5,2.8c-0.4,0.9-0.9,1.7-1.5,2.3c-0.7,0.7-1.4,1.2-2.3,1.5
		C269.9,14.1,269,14.3,268,14.3 M262.5,20h11.1v60h-11.1V20z"/>
	<path style="clip-path:url(#SVGID_00000060017212309982748520000009719407421092939943_);fill:#4D4D4D;" d="M317.1,75.8
		c-2.4,1.1-6.3,2.9-8.1,3.4c-1.8,0.5-3.3,0.8-4.6,0.8c-9.9,0-14.8-5.7-14.8-17.2V30.7H280V19.9h9.5V4.6h11.2v15.3h13.8v10.7h-13.8
		v31.5c0,2.5,0.3,4.3,1,5.4c0.6,1.1,1.8,1.7,3.4,1.7c2.4,0,5.1-1.2,8.4-3.9L317.1,75.8z"/>
	<path style="clip-path:url(#SVGID_00000060017212309982748520000009719407421092939943_);fill:#4D4D4D;" d="M331.3,53.3
		c0.2,2.4,0.7,4.5,1.3,6.5c0.7,2,1.6,3.6,2.7,4.9c2.7,3.2,6.4,4.8,11.4,4.8c5.1,0,10.6-2.3,16.6-7l5.7,9c-4.1,2.8-8,5-11.8,6.4
		s-7.7,2.1-11.5,2.1c-3.8,0-7.2-0.7-10.4-2.2c-3.2-1.4-6-3.5-8.4-6.1c-2.3-2.7-4.1-5.8-5.3-9.4c-1.2-3.6-1.8-7.9-1.8-12.6
		c0-4.1,0.6-7.9,1.9-11.4c1.2-3.5,3-6.6,5.4-9.4c2.5-2.8,5.5-4.9,8.8-6.5c3.3-1.6,6.9-2.4,10.8-2.4c3.7,0,7.1,0.7,10,2.1
		c3,1.4,5.5,3.4,7.6,5.9c1.8,2.5,3.2,5.4,4.3,8.9c1.1,3.5,1.6,7.2,1.6,11.2v5.2H331.3z M358.4,42.9c-0.5-4-1.8-7.1-3.9-9.2
		c-2.1-2.1-4.8-3.2-8.2-3.2c-2,0-3.8,0.3-5.5,1c-1.7,0.7-3.2,1.6-4.5,2.9c-1,1-1.8,2.2-2.5,3.6c-0.7,1.4-1.3,3.1-1.8,4.9H358.4z"/>
</g>
<g>
	<defs>
		<path id="SVGID_00000074421527108462558440000016810445267612296895_" d="M42.1,26.9c1.3-0.2,2.1-0.4,3.7-0.6
			c0.7-0.1,1.4-0.2,2-0.2L50,26c1.1,0,3.2,0.2,4.2,0.3l3.8,0.6v1.4c-0.2-0.1-0.6-0.1-0.8-0.2c-0.3-0.1-0.6-0.1-0.9-0.1
			c-4.7-0.8-8.7-0.8-13.3,0.1c-0.3,0.1-0.6,0.1-0.9,0.2V26.9z M49,21.9l-13.9,4.8c0.3,0,6.9,1.5,6.9,1.5v2c1.7-0.5,4.4-0.5,6,0
			c1.4,0.4,2,0.9,2,0.9c1.3-1.2,4.2-1.5,6.6-1.2c0.3,0,0.4,0.1,0.7,0.1c0.3,0.1,0.7,0.1,0.7,0.1v-2c0.9-0.1,5.9-1.4,6.8-1.5
			l-9.3-3.2c-0.3-0.1-0.6-0.2-0.9-0.3l-4.2-1.4c-0.2-0.1-0.3-0.1-0.4-0.1C49.8,21.6,49.6,21.7,49,21.9"/>
	</defs>
	<clipPath id="SVGID_00000067958467979211062560000000106604324908197011_">
		<use xlink:href="#SVGID_00000074421527108462558440000016810445267612296895_"  style="overflow:visible;"/>
	</clipPath>
	
		<linearGradient id="SVGID_00000148619365592435005840000007128543535980582797_" gradientUnits="userSpaceOnUse" x1="-7.444088e-06" y1="100.195" x2="1" y2="100.195" gradientTransform="matrix(29.7219 0 0 -29.7219 35.1422 3004.3882)">
		<stop  offset="0" style="stop-color:#00B7A5"/>
		<stop  offset="0.4826" style="stop-color:#00F7DF"/>
		<stop  offset="1" style="stop-color:#00B7A5"/>
	</linearGradient>
	
		<rect x="35.1" y="21.6" style="clip-path:url(#SVGID_00000067958467979211062560000000106604324908197011_);fill:url(#SVGID_00000148619365592435005840000007128543535980582797_);" width="29.7" height="9.5"/>
</g>
<g>
	<defs>
		<path id="SVGID_00000078738518984138965690000017720328131031027390_" d="M13.6,26.2c20.1,1.2,32,17.3,32,36.9
			c0,19.6-11.9,35.7-32,36.9c0.8,0.1,1.6,0.1,2.4,0.1c21.2,0,38.4-16.5,38.4-37c0-20.4-17.2-37-38.4-37
			C15.2,26.1,14.4,26.1,13.6,26.2"/>
	</defs>
	<clipPath id="SVGID_00000168828136426455893860000003331730115560309677_">
		<use xlink:href="#SVGID_00000078738518984138965690000017720328131031027390_"  style="overflow:visible;"/>
	</clipPath>
	
		<linearGradient id="SVGID_00000013891181924608396990000005177099728050530192_" gradientUnits="userSpaceOnUse" x1="1.502580e-05" y1="100.195" x2="1" y2="100.195" gradientTransform="matrix(40.7472 0 0 -40.7472 13.6494 4145.7046)">
		<stop  offset="0" style="stop-color:#00B7A5"/>
		<stop  offset="0.4826" style="stop-color:#00F7DF"/>
		<stop  offset="1" style="stop-color:#00B7A5"/>
	</linearGradient>
	
		<rect x="13.6" y="26.1" style="clip-path:url(#SVGID_00000168828136426455893860000003331730115560309677_);fill:url(#SVGID_00000013891181924608396990000005177099728050530192_);" width="40.7" height="73.9"/>
</g>
<g>
	<defs>
		<path id="SVGID_00000154427119350316143210000007088358893928880024_" d="M45.6,63c0,20.4,17.2,37,38.3,37c0.8,0,1.6,0,2.4-0.1
			c-20.1-1.2-32-17.3-32-36.9c0-19.6,11.9-35.7,32-36.9c-0.8-0.1-1.6-0.1-2.4-0.1C62.8,26.1,45.6,42.6,45.6,63"/>
	</defs>
	<clipPath id="SVGID_00000047017861141100378150000012498131320980649359_">
		<use xlink:href="#SVGID_00000154427119350316143210000007088358893928880024_"  style="overflow:visible;"/>
	</clipPath>
	
		<linearGradient id="SVGID_00000063624515381516351510000013927948336859757451_" gradientUnits="userSpaceOnUse" x1="5.429885e-06" y1="100.195" x2="1" y2="100.195" gradientTransform="matrix(40.7472 0 0 -40.7472 45.6098 4145.7046)">
		<stop  offset="0" style="stop-color:#00B7A5"/>
		<stop  offset="0.4826" style="stop-color:#00F7DF"/>
		<stop  offset="1" style="stop-color:#00B7A5"/>
	</linearGradient>
	
		<rect x="45.6" y="26.1" style="clip-path:url(#SVGID_00000047017861141100378150000012498131320980649359_);fill:url(#SVGID_00000063624515381516351510000013927948336859757451_);" width="40.7" height="73.9"/>
</g>
<g>
	<defs>
		<path id="SVGID_00000041261755286743234300000006987418530351590272_" d="M13.7,99.9c0.1-38.2,33.5-39.3,62.8-39.3
			c-9.5-2.2-17.7-3.1-24.9-3.1C14.3,57.5,6.6,83.6,13.7,99.9"/>
	</defs>
	<clipPath id="SVGID_00000148631249069837914180000018372771651020194735_">
		<use xlink:href="#SVGID_00000041261755286743234300000006987418530351590272_"  style="overflow:visible;"/>
	</clipPath>
	
		<linearGradient id="SVGID_00000181076898124547685650000016242199249086742973_" gradientUnits="userSpaceOnUse" x1="0" y1="100.195" x2="1" y2="100.195" gradientTransform="matrix(65.1693 0 0 -65.1693 11.2906 6608.3584)">
		<stop  offset="0" style="stop-color:#00B7A5"/>
		<stop  offset="0.4826" style="stop-color:#00F7DF"/>
		<stop  offset="1" style="stop-color:#00B7A5"/>
	</linearGradient>
	
		<rect x="6.6" y="57.5" style="clip-path:url(#SVGID_00000148631249069837914180000018372771651020194735_);fill:url(#SVGID_00000181076898124547685650000016242199249086742973_);" width="69.9" height="42.4"/>
</g>
<g>
	<defs>
		<path id="SVGID_00000133500588761030897550000006389291930590542742_" d="M50,0C25.9,0,5.7,16.5,0,38.7C6.5,20.6,26.4,7.4,50,7.4
			c23.6,0,43.5,13.2,50,31.3C94.3,16.5,74.1,0,50,0z"/>
	</defs>
	<clipPath id="SVGID_00000069375611829405773810000009070380307364737676_">
		<use xlink:href="#SVGID_00000133500588761030897550000006389291930590542742_"  style="overflow:visible;"/>
	</clipPath>
	
		<linearGradient id="SVGID_00000093150624848894921180000012769790213726431881_" gradientUnits="userSpaceOnUse" x1="0" y1="100.1927" x2="1" y2="100.1927" gradientTransform="matrix(-140.0688 1.793 1.793 140.0688 -66.733 -14015.3193)">
		<stop  offset="0" style="stop-color:#00B7A5"/>
		<stop  offset="0.4826" style="stop-color:#00F7DF"/>
		<stop  offset="1" style="stop-color:#00B7A5"/>
	</linearGradient>
	
		<polygon style="clip-path:url(#SVGID_00000069375611829405773810000009070380307364737676_);fill:url(#SVGID_00000093150624848894921180000012769790213726431881_);" points="
		100.5,38.7 0,40 -0.5,0 100,-1.3 	"/>
</g>
</svg>
